<?xml version="1.0" encoding="utf-8"?>
<!-- Generator: Adobe Illustrator 24.2.3, SVG Export Plug-In . SVG Version: 6.00 Build 0)  -->
<svg version="1.1" id="Layer_1" xmlns="http://www.w3.org/2000/svg" xmlns:xlink="http://www.w3.org/1999/xlink" x="0px" y="0px"
	 viewBox="0 0 512 512" style="enable-background:new 0 0 512 512;" xml:space="preserve">
<style type="text/css">
	.st0{fill:#E9E9E9;}
	.st1{fill:#A8AFB2;}
	.st2{fill:#E8EDFC;}
	.st3{fill:#BFBFBF;}
	.st4{fill:#FFFFFF;}
	.st5{fill:#3D464D;}
</style>
<g id="Page-1">
	<g id="_x30_41---Weight-Training">
		<g>
			<path id="Shape" class="st0" d="M187.7,128v72c0,11.8-9.6,21.3-21.3,21.3s-21.3-9.6-21.3-21.3v-72c0-11.7,9.5-21.2,21.2-21.2h0.3
				C178.3,106.8,187.7,116.3,187.7,128z"/>
			<path id="Shape_1_" class="st0" d="M230.4,113.7v72.2c0,5.6-2.2,11-6.2,15c-4,4-9.4,6.2-15,6.2H209c-5.6,0-11-2.2-15-6.2
				s-6.2-9.4-6.2-15v-72.2c0-5.6,2.2-11,6.2-15c4-4,9.4-6.2,15-6.2h0.2c5.6,0,11,2.2,15,6.2C228.2,102.6,230.4,108,230.4,113.7z"/>
			<path id="Shape_2_" class="st0" d="M315.7,121l0,38.7h-0.1L297.1,141c-6.4-6.5-16.9-6.8-23.6-0.5l-0.5-0.6V121
				c0-5.6,2.2-11,6.2-15c4-4,9.4-6.3,15-6.3h0.3c5.6,0,11,2.3,15,6.3S315.8,115.4,315.7,121L315.7,121z"/>
			<path id="Shape_3_" class="st0" d="M362.5,230.2L352,248.1l-4.6,7.9l-46.3,79c-1.6,2.6-2.4,5.6-2.4,8.6v77.6c0,3-2.5,5.4-5.5,5.5
				H184.6c-1.4,0-2.8-0.6-3.8-1.6c-1-1-1.6-2.4-1.6-3.8v-76.8c-0.3-6.2-2.3-12.2-5.7-17.3l-9.8-17c-7.1-12.2-10.6-26.2-10.1-40.3
				V256h102.5c1.2-2.1,2.4-4.1,3.8-6.1c11.3-16.2,27.7-28.3,46.6-34.2c0,0-6.4-6.5-19.3-19.5c-3.8-3.8-8.1-8.2-13.1-13.1
				c-0.4-0.4-0.8-0.9-1.1-1.4c0,0-0.1,0-0.1-0.1c-9.4-12.2-9.1-29.3,0.6-41.2c6.7-6.3,17.1-6,23.6,0.5l18.5,18.7l18.6,18.8
				l17.7,17.8l7.3,7.4C366.4,210.8,367.7,221.7,362.5,230.2L362.5,230.2z"/>
		</g>
		<path id="Shape_4_" class="st1" d="M359.3,203.7l-7.3-7.4l-17.7-17.8l-18.6-18.8L297.1,141c-6.4-6.5-16.9-6.8-23.6-0.5
			c-0.4,0.4-0.7,1-1.1,1.5l17.6,17.7l18.6,18.8l17.7,17.8l7.3,7.4c7,7.1,8.3,18,3.2,26.5l-10.5,17.9l-4.6,7.9l-46.3,79
			c-1.6,2.6-2.4,5.6-2.4,8.6v77.6c0,3-2.5,5.4-5.5,5.5h25.6c3,0,5.4-2.5,5.5-5.5v-77.6c0-3,0.8-6,2.4-8.6l46.3-79l4.6-7.9l10.5-17.9
			C367.7,221.7,366.4,210.8,359.3,203.7z"/>
		<path id="Shape_5_" class="st2" d="M256.1,256c-3.6,6.1-6.6,12.6-8.9,19.4"/>
		<path id="Shape_6_" class="st3" d="M401.1,196.3V256h-53.7l4.6-7.9l10.5-17.9c5.2-8.5,3.9-19.5-3.2-26.5l-7.3-7.4H401.1z"/>
		<path id="Shape_7_" class="st0" d="M273,181.7C273,181.7,273,181.8,273,181.7l0.1,9c-2.6,9.7-11.3,16.4-21.3,16.4
			c-5.6,0-11.1-2.2-15.1-6.1c-4-4-6.2-9.4-6.2-15v-79.2c0-5.6,2.2-11,6.2-15s9.4-6.3,15-6.3h0.3c5.6,0,11,2.3,15,6.3s6.2,9.4,6.2,15
			v33.2l0.5,0.6C263.9,152.4,263.6,169.5,273,181.7L273,181.7z"/>
		<path id="Shape_8_" class="st3" d="M306.5,215.7c-18.9,5.9-35.3,18-46.6,34.2c-1.4,1.9-2.7,4-3.8,6.1H111.3v-59.7h33.8v3.8
			c0,11.8,9.6,21.3,21.3,21.3s21.3-9.6,21.3-21.3v-14.2c0,5.6,2.2,11,6.2,15c4,4,9.4,6.2,15,6.2h0.2c5.6,0,11-2.2,15-6.2
			c4-4,6.2-9.4,6.2-15c0,5.6,2.2,11,6.2,15c4,3.9,9.5,6.1,15.1,6.1c10,0,18.8-6.7,21.3-16.4v-8.9c0.3,0.5,0.7,0.9,1.1,1.4
			c4.9,4.9,9.3,9.3,13.1,13.1C300.1,209.2,306.5,215.7,306.5,215.7L306.5,215.7z"/>
		<path id="Shape_9_" class="st0" d="M111.3,110.9v230.4c0,14.1-11.5,25.6-25.6,25.6s-25.6-11.5-25.6-25.6V110.9
			c0-14.1,11.5-25.6,25.6-25.6S111.3,96.8,111.3,110.9z"/>
		<path id="Shape_10_" class="st0" d="M60.1,162.1v128c0,14.1-11.5,25.6-25.6,25.6S8.9,304.3,8.9,290.1v-128
			c0-14.1,11.5-25.6,25.6-25.6S60.1,148,60.1,162.1z"/>
		<path id="Shape_11_" class="st0" d="M503.5,162.1v128c0,14.1-11.5,25.6-25.6,25.6c-14.1,0-25.6-11.5-25.6-25.6v-128
			c0-14.1,11.5-25.6,25.6-25.6C492,136.5,503.5,148,503.5,162.1z"/>
		<path id="Shape_12_" class="st0" d="M452.3,110.9v230.4c0,14.1-11.5,25.6-25.6,25.6s-25.6-11.5-25.6-25.6V110.9
			c0-14.1,11.5-25.6,25.6-25.6S452.3,96.8,452.3,110.9z"/>
		<path id="Shape_13_" class="st4" d="M85.7,366.9c4.5,0,8.9-1.2,12.8-3.5c-7.9-4.5-12.8-12.9-12.8-22.1v-51.2
			c0,14.1-11.5,25.6-25.6,25.6v25.6C60.1,355.5,71.5,366.9,85.7,366.9z"/>
		<path id="Shape_14_" class="st4" d="M47.3,140c-7.9-4.6-17.7-4.6-25.6,0c-7.9,4.6-12.8,13-12.8,22.1v128
			c-0.1,9.2,4.8,17.7,12.8,22.2s17.7,4.5,25.6-0.2c-7.9-4.5-12.8-12.9-12.8-22.1v-128C34.4,153,39.3,144.5,47.3,140z"/>
		<path id="Shape_15_" class="st4" d="M78.2,144c4.8,4.8,7.5,11.3,7.5,18.1v-51.2c-0.1-9.2,4.8-17.6,12.8-22.1
			c-7.9-4.6-17.7-4.6-25.6,0c-7.9,4.6-12.8,13-12.8,22.1v25.6C66.9,136.5,73.4,139.2,78.2,144z"/>
		<path id="Rectangle-path" class="st4" d="M0.3,221.9h17.1v68.3H0.3L0.3,221.9z"/>
		<circle id="Oval" class="st5" cx="8.9" cy="256" r="8.5"/>
		<path id="Shape_16_" class="st5" d="M477.9,128c-6,0-11.9,1.7-17.1,4.7v-21.8c0-18.9-15.3-34.1-34.1-34.1s-34.1,15.3-34.1,34.1
			v76.8h-37l-31.3-31.5V121c0-7.9-3.2-15.6-8.8-21.2c-5.6-5.6-13.3-8.7-21.2-8.7c-5.3,0-10.4,1.5-14.9,4.2
			c-4.2-10.2-13.7-17.2-24.6-18.3s-21.6,3.9-27.8,13c-7.4-5.6-16.9-7.4-25.8-5c-8.9,2.4-16.2,8.9-19.7,17.5
			c-4.6-2.7-9.8-4.2-15.2-4.2c-16.4,0-29.7,13.3-29.7,29.7v59.7h-16.7v-76.8c0-18.9-15.3-34.1-34.1-34.1s-34.1,15.3-34.1,34.1v21.8
			c-5.2-3.1-11.1-4.7-17.1-4.7c-18.9,0-34.1,15.3-34.1,34.1v59.7c0,4.7,3.8,8.5,8.5,8.5s8.5-3.8,8.5-8.5v-59.7
			c0-9.4,7.6-17.1,17.1-17.1s17.1,7.6,17.1,17.1v128c0,9.4-7.6,17.1-17.1,17.1s-17.1-7.6-17.1-17.1c0-4.7-3.8-8.5-8.5-8.5
			s-8.5,3.8-8.5,8.5c0,18.9,15.3,34.1,34.1,34.1c6,0,11.9-1.7,17.1-4.7v21.8c0,18.9,15.3,34.1,34.1,34.1s34.1-15.3,34.1-34.1v-76.8
			h25.3v5.4c-0.6,15.6,3.3,31.1,11.2,44.5l9.9,17.1c2.6,3.8,4.2,8.3,4.5,12.9v76.8c0,7.7,6.2,13.9,13.9,13.9h108.6
			c7.7,0,14-6.3,14-14v-77.6c0-1.5,0.4-3,1.2-4.3l43.9-74.8h40.3v76.8c0,18.9,15.3,34.1,34.1,34.1s34.1-15.3,34.1-34.1v-21.8
			c5.2,3.1,11.1,4.7,17.1,4.7c18.9,0,34.1-15.3,34.1-34.1v-128C512,143.3,496.7,128,477.9,128L477.9,128z M294.5,108.2
			c7,0.1,12.7,5.8,12.7,12.8l0,18l-4-4.1c-4.9-4.8-11.5-7.6-18.4-7.6h-0.1c-1,0-2.1,0.1-3.1,0.3V121c0-3.4,1.4-6.7,3.8-9.1
			S291.1,108.1,294.5,108.2z M238.9,106.7c0-7.1,5.7-12.8,12.8-12.8s12.8,5.7,12.8,12.8v31.6c-9.1,14-9.1,32.1,0,46.1v5.2
			c-1.9,5.4-7.1,9-12.8,9c-3.4,0-6.6-1.3-9-3.7c-2.4-2.4-3.8-5.6-3.8-9V106.7z M196.3,113.7c0-7.1,5.7-12.8,12.8-12.8
			c7.1,0,12.8,5.7,12.8,12.8v72.1c0,7-5.7,12.7-12.7,12.7h-0.3c-7,0-12.7-5.7-12.7-12.7L196.3,113.7z M153.6,128
			c0-7.1,5.7-12.8,12.8-12.8s12.8,5.7,12.8,12.8v72c0,7.1-5.7,12.8-12.8,12.8s-12.8-5.7-12.8-12.8V128z M102.7,341.3
			c0,9.4-7.6,17.1-17.1,17.1s-17.1-7.6-17.1-17.1V110.9c0-9.4,7.6-17.1,17.1-17.1s17.1,7.6,17.1,17.1V341.3z M119.8,204.8H137
			c2.3,14.4,14.8,25,29.4,25.1c12.1,0,23-7.3,27.6-18.5c4.5,2.7,9.7,4.2,14.9,4.2h0.3c8,0,15.6-3.2,21.2-9c0.1,0.1,0.2,0.2,0.3,0.3
			c5.6,5.6,13.2,8.7,21.1,8.6c11.2,0,21.4-6.1,26.8-15.9c0.9,0.9,1.8,1.8,2.6,2.6l10.1,10.2C276,220,262.8,231.1,253,245
			c-0.6,0.9-1.1,1.7-1.6,2.6H119.8L119.8,204.8z M293.8,330.6c-2.4,3.9-3.7,8.5-3.6,13.1v74.5H187.7v-73.6
			c-0.2-7.7-2.6-15.2-6.8-21.6l-10-17.2c-6.3-10.9-9.3-23.3-8.8-35.8v-5.4h80.2c-1.1,2.6-2.3,5.3-3.2,8.1c-1.5,4.5,0.9,9.3,5.3,10.8
			c4.5,1.5,9.3-0.9,10.8-5.3c2.1-6.2,4.9-12.3,8.2-17.9c1-1.8,2.2-3.6,3.4-5.3c10.2-14.5,24.8-25.3,41.7-30.9c3-0.7,5.3-3,6.1-6
			s0-6.1-2.1-8.3c0,0-6.4-6.5-19.3-19.4c-3.6-3.7-7.8-7.9-12.5-12.6l-0.7-0.7c-0.3-0.4-0.5-0.7-0.9-1.1c-6.4-8.9-6.2-20.8,0.3-29.5
			c1.3-1.4,3.2-2.2,5.1-2c2.3,0,4.6,0.9,6.3,2.6l62.2,62.7c4.3,4.3,5.1,11,1.9,16.2L293.8,330.6z M362.3,247.5l7.5-12.8
			c5.5-9.1,5.8-20.5,0.7-29.9h22v42.7H362.3z M443.7,341.3c0,9.4-7.6,17.1-17.1,17.1s-17.1-7.6-17.1-17.1V110.9
			c0-9.4,7.6-17.1,17.1-17.1s17.1,7.6,17.1,17.1V341.3z M494.9,290.1c0,9.4-7.6,17.1-17.1,17.1c-9.4,0-17.1-7.6-17.1-17.1v-128
			c0-9.4,7.6-17.1,17.1-17.1c9.4,0,17.1,7.6,17.1,17.1V290.1z"/>
	</g>
</g>
</svg>
